<?xml version="1.0" encoding="UTF-8" standalone="no"?>
<svg
   version="1.1"
   width="640px"
   height="640px"
   style="shape-rendering:geometricPrecision; text-rendering:geometricPrecision; image-rendering:optimizeQuality; fill-rule:evenodd; clip-rule:evenodd"
   id="svg58"
   sodipodi:docname="avatar-signed.svg"
   inkscape:version="1.2.2 (b0a8486541, 2022-12-01)"
   inkscape:export-filename="avatar-signed.png"
   inkscape:export-xdpi="96"
   inkscape:export-ydpi="96"
   xmlns:inkscape="http://www.inkscape.org/namespaces/inkscape"
   xmlns:sodipodi="http://sodipodi.sourceforge.net/DTD/sodipodi-0.dtd"
   xmlns="http://www.w3.org/2000/svg"
   xmlns:svg="http://www.w3.org/2000/svg">
  <defs
     id="defs62">
    <rect
       x="281.95044"
       y="504.84108"
       width="133.67317"
       height="44.846236"
       id="rect1074" />
  </defs>
  <sodipodi:namedview
     id="namedview60"
     pagecolor="#ffffff"
     bordercolor="#000000"
     borderopacity="0.25"
     inkscape:showpageshadow="2"
     inkscape:pageopacity="0.0"
     inkscape:pagecheckerboard="0"
     inkscape:deskcolor="#d1d1d1"
     showgrid="false"
     inkscape:zoom="1.3484375"
     inkscape:cx="267.34647"
     inkscape:cy="473.14021"
     inkscape:window-width="1920"
     inkscape:window-height="1004"
     inkscape:window-x="0"
     inkscape:window-y="35"
     inkscape:window-maximized="1"
     inkscape:current-layer="svg58" />
  <g
     id="g4">
    <path
       style="opacity:1"
       fill="#000000"
       d="M -0.5,-0.5 C 212.833,-0.5 426.167,-0.5 639.5,-0.5C 639.5,212.833 639.5,426.167 639.5,639.5C 426.167,639.5 212.833,639.5 -0.5,639.5C -0.5,426.167 -0.5,212.833 -0.5,-0.5 Z"
       id="path2" />
  </g>
  <g
     id="g317">
    <path
       fill="#fefffe"
       d="m 212.5,107.5 c 10.319,0.697 20.319,2.864 30,6.5 8.997,5.486 14.663,13.32 17,23.5 -1.05,7.434 -4.217,13.767 -9.5,19 -9.023,8.024 -17.69,16.358 -26,25 -4.746,8.812 -7.746,18.145 -9,28 -2.952,3.982 -5.952,3.982 -9,0 -0.342,-7.821 1.492,-15.154 5.5,-22 -1.377,-3.077 -1.21,-6.077 0.5,-9 12.271,-10.268 23.937,-21.268 35,-33 3.333,-4.667 3.333,-9.333 0,-14 -7.814,-10.05 -18.148,-14.717 -31,-14 -12.512,-0.722 -22.846,3.611 -31,13 -6.47,9.437 -12.303,19.27 -17.5,29.5 4.214,3.94 3.547,6.94 -2,9 -2.333,0.667 -4.667,0.667 -7,0 -2.52,-4.453 -2.354,-8.953 0.5,-13.5 6.835,-11.674 14.168,-23.007 22,-34 3.21,-3.687 7.044,-6.521 11.5,-8.5 6.708,-2.174 13.375,-4.007 20,-5.5 z"
       id="path6" />
    <path
       fill="#fefffe"
       d="m 383.5,146.5 c 17.778,-0.061 33.778,5.106 48,15.5 19.037,22.041 16.704,41.708 -7,59 -19.711,8.938 -38.878,18.771 -57.5,29.5 -2.5,0.167 -3.667,-1 -3.5,-3.5 0.419,-3.425 2.086,-6.091 5,-8 17.244,-9.191 34.578,-18.191 52,-27 7.861,-6.006 12.527,-13.84 14,-23.5 -0.653,-8.474 -4.32,-15.307 -11,-20.5 -16.57,-12.065 -34.57,-14.732 -54,-8 -3.94,1.886 -7.44,4.386 -10.5,7.5 0.033,3.593 -0.133,7.093 -0.5,10.5 -8.504,0.22 -11.67,-3.947 -9.5,-12.5 3.881,-5.875 9.048,-10.375 15.5,-13.5 6.335,-2.289 12.669,-4.123 19,-5.5 z"
       id="path10" />
    <path
       fill="#fefffe"
       d="m 522.5,157.5 c 15.942,-0.762 28.442,5.238 37.5,18 5.3,11.013 5.966,22.347 2,34 -1.513,4.87 -4.679,7.37 -9.5,7.5 -0.597,-1.062 -0.93,-2.228 -1,-3.5 2.713,-9.84 3.547,-19.84 2.5,-30 -5.551,-12.358 -15.051,-17.858 -28.5,-16.5 -4.443,5.318 -6.943,11.485 -7.5,18.5 -0.284,7.347 -0.284,14.681 0,22 -0.623,4.155 -2.79,5.488 -6.5,4 -5.496,-16.07 -4.329,-31.737 3.5,-47 1.742,-3.246 4.242,-5.579 7.5,-7 z"
       id="path14" />
    <path
       fill="#fefffe"
       d="m 209.5,222.5 c 4.683,1.71 6.183,5.043 4.5,10 -4.307,8.791 -11.141,11.624 -20.5,8.5 -2.783,-5.671 -1.449,-10.338 4,-14 4.071,-1.63 8.071,-3.13 12,-4.5 z"
       id="path18" />
    <path
       fill="#fefffe"
       d="m 569.5,232.5 c 3.56,1.364 6.727,3.364 9.5,6 0.486,5.492 -2.014,7.325 -7.5,5.5 -2.683,-1.845 -4.35,-4.345 -5,-7.5 0.287,-1.943 1.287,-3.277 3,-4 z"
       id="path22" />
    <path
       fill="#fefffe"
       d="m 354.5,271.5 c 9.929,1.639 12.762,6.972 8.5,16 -2.069,1.866 -4.402,3.199 -7,4 -3.564,-0.579 -7.064,-1.413 -10.5,-2.5 -3.825,-5.737 -2.825,-10.737 3,-15 2.111,-0.845 4.111,-1.678 6,-2.5 z"
       id="path26" />
    <path
       fill="#fefffe"
       d="m 517.5,272.5 c 24.934,2.432 38.1,16.099 39.5,41 -1.521,5.866 -4.688,10.7 -9.5,14.5 -4,2.333 -8,4.667 -12,7 -19.345,6.669 -38.678,13.335 -58,20 -2.333,0.667 -4.667,0.667 -7,0 -2.692,-2.632 -2.359,-4.966 1,-7 14.017,-7.004 28.684,-12.337 44,-16 8.269,-3.136 16.269,-6.802 24,-11 2.167,-2.167 4.333,-4.333 6.5,-6.5 1.202,-10.467 -2.298,-19.3 -10.5,-26.5 -7.745,-4.329 -16.078,-5.662 -25,-4 -14.538,1.204 -22.371,9.038 -23.5,23.5 -1.667,2.667 -3.333,2.667 -5,0 -5.053,-13.729 -0.886,-23.562 12.5,-29.5 7.635,-2.555 15.302,-4.388 23,-5.5 z"
       id="path30" />
    <path
       fill="#fefffe"
       d="m 186.5,273.5 c 22.2,2.267 41.2,11.267 57,27 9.404,-4.072 19.237,-6.072 29.5,-6 19.253,0.206 38.086,3.04 56.5,8.5 3.024,2.475 3.69,5.475 2,9 -8.277,1.435 -16.61,2.768 -25,4 12.914,5.791 25.581,12.124 38,19 3.844,2.422 7.51,5.089 11,8 13.137,13.958 25.804,28.291 38,43 6.914,3.526 13.914,6.86 21,10 4,3.667 4,7.333 0,11 -4.865,1.619 -9.532,3.619 -14,6 -3.76,1.176 -6.593,0.01 -8.5,-3.5 -2.451,-6.904 -5.451,-13.57 -9,-20 -12.788,-15.789 -26.622,-30.622 -41.5,-44.5 -11.054,-6.194 -22.388,-11.861 -34,-17 -9.973,-2.461 -19.973,-4.795 -30,-7 -2.811,-3.294 -2.478,-6.294 1,-9 3.854,-1.047 7.52,-2.547 11,-4.5 -9.562,-1.988 -19.229,-2.488 -29,-1.5 -5.314,1.155 -10.314,3.155 -15,6 -2.333,0.667 -4.667,0.667 -7,0 -4.613,-4.613 -9.279,-9.279 -14,-14 -5.45,-3.809 -11.283,-6.976 -17.5,-9.5 -0.5,0.333 -1,0.667 -1.5,1 2.99,4.163 2.657,7.996 -1,11.5 -9.324,-1.062 -18.657,-2.395 -28,-4 -17.632,-0.143 -34.965,2.191 -52,7 -7.008,1.89 -13.675,4.556 -20,8 -4.128,1.281 -7.461,0.281 -10,-3 -5.6926,-0.405 -11.3593,-0.072 -17,1 -1.5456,1.44 -2.379,3.273 -2.5,5.5 -1.6839,1.566 -3.6839,2.566 -6,3 -4.9206,-0.793 -9.7539,-1.959 -14.5,-3.5 -4,-3 -4,-6 0,-9 12.3598,-3.199 24.8598,-5.699 37.5,-7.5 7.7017,3.15 14.868,2.317 21.5,-2.5 19.626,-5.135 39.459,-8.302 59.5,-9.5 6.899,0.84 13.732,1.673 20.5,2.5 -2.843,-3.175 -6.01,-6.009 -9.5,-8.5 -1.084,-3.159 -0.25,-5.492 2.5,-7 z"
       id="path34" />
    <path
       fill="#fefffe"
       d="m 165.5,320.5 c 19.297,0.932 36.964,6.766 53,17.5 9.317,11.414 10.984,23.914 5,37.5 1.916,1.817 4.249,2.984 7,3.5 4.262,2.649 5.429,6.149 3.5,10.5 -2.374,2.039 -4.374,4.372 -6,7 -1.783,5.567 -4.117,10.901 -7,16 -1.662,20.025 3.671,38.025 16,54 0.825,2.201 0.325,4.034 -1.5,5.5 -5.94,1.419 -10.107,-0.748 -12.5,-6.5 -6.242,-11.392 -10.908,-23.392 -14,-36 -8.167,8.167 -16.333,16.333 -24.5,24.5 -7.179,4.603 -10.346,2.77 -9.5,-5.5 11.003,-10.669 21.669,-21.669 32,-33 4.022,-6.043 7.522,-12.377 10.5,-19 -1.638,-2.804 -3.471,-5.471 -5.5,-8 -18.171,10.608 -36.338,10.441 -54.5,-0.5 -17.454,-9.838 -22.954,-24.338 -16.5,-43.5 4.158,-12.327 12.324,-20.327 24.5,-24 z"
       id="path38" />
    <path
       fill="#000000"
       d="m 161.5,331.5 c 4.732,-0.122 9.398,0.378 14,1.5 1.574,1.826 2.407,3.993 2.5,6.5 2.994,2.776 6.494,3.942 10.5,3.5 0.71,-2.544 2.376,-3.711 5,-3.5 9.343,0.251 16.509,4.251 21.5,12 1.213,3.268 1.546,6.601 1,10 -10.215,-7.031 -19.215,-5.698 -27,4 -3.401,7.245 -2.234,13.745 3.5,19.5 -16.426,2.194 -29.926,-2.973 -40.5,-15.5 -4.124,-8.102 -4.458,-16.435 -1,-25 2.985,-4.811 6.485,-9.144 10.5,-13 z"
       id="path42" />
    <path
       fill="#fefffe"
       d="m 296.5,350.5 c 9.891,0.675 19.558,2.508 29,5.5 15.823,10.434 20.323,24.6 13.5,42.5 -3.833,9.167 -10.333,15.667 -19.5,19.5 -25.569,7.487 -49.235,3.487 -71,-12 -13.755,-11.538 -15.255,-24.372 -4.5,-38.5 5.167,-4.5 10.333,-9 15.5,-13.5 12.444,-2.087 24.777,-3.254 37,-3.5 z"
       id="path46" />
    <path
       fill="#000000"
       d="m 291.5,361.5 c 10.364,-0.772 20.364,0.728 30,4.5 9.083,6.683 11.916,15.516 8.5,26.5 -6.591,13.385 -17.424,19.719 -32.5,19 -8.924,-0.385 -17.591,-2.052 -26,-5 -1.021,-0.502 -1.188,-1.168 -0.5,-2 10.902,-6.798 13.235,-15.798 7,-27 -5.388,-5.03 -11.554,-6.197 -18.5,-3.5 -4.523,3.023 -8.19,6.856 -11,11.5 -0.578,-3.426 0.255,-6.76 2.5,-10 3.758,-4.431 8.092,-8.098 13,-11 1.555,1.348 3.389,2.014 5.5,2 7.539,-1.305 14.872,-2.972 22,-5 z"
       id="path50" />
    <path
       fill="#fefffe"
       d="m 473.5,361.5 c 7.58,1.078 9.746,5.078 6.5,12 -5.803,4.772 -9.97,3.605 -12.5,-3.5 0.687,-3.84 2.687,-6.673 6,-8.5 z"
       id="path54" />
  </g>
  <text
     xml:space="preserve"
     id="text1072"
     style="font-style:normal;font-variant:normal;font-weight:normal;font-stretch:normal;font-size:37.3333px;font-family:sans-serif;-inkscape-font-specification:'sans-serif, Normal';font-variant-ligatures:normal;font-variant-caps:normal;font-variant-numeric:normal;font-variant-east-asian:normal;white-space:pre;shape-inside:url(#rect1074);display:inline;fill:#181818;fill-opacity:1"
     transform="translate(-20.620617,-19.215147)"><tspan
       x="281.95117"
       y="538.81044"
       id="tspan351">by yqt</tspan></text>
</svg>
